<svg xmlns="http://www.w3.org/2000/svg" xmlns:xlink="http://www.w3.org/1999/xlink" width="34.595" height="31.765" viewBox="0 0 34.595 31.765">
  <defs>
    <linearGradient id="linear-gradient" x1="0.5" x2="0.5" y2="1" gradientUnits="objectBoundingBox">
      <stop offset="0" stop-color="#282b73"/>
      <stop offset="1" stop-color="#59265b"/>
    </linearGradient>
  </defs>
  <g id="Group_14397" data-name="Group 14397" transform="translate(-428.684 130.863)" style="isolation: isolate">
    <path id="Path_25972" data-name="Path 25972" d="M490.5-84.4h-9.662a1.176,1.176,0,0,1-1.316-1.307q0-5.489,0-10.978a1.173,1.173,0,0,1,1.3-1.291h19.425a1.175,1.175,0,0,1,1.3,1.291q0,5.506,0,11.011a1.17,1.17,0,0,1-1.283,1.273Zm.029-1.011c3.2,0,6.393,0,9.59.006.331,0,.423-.1.422-.427q-.014-5.351,0-10.7c0-.311-.071-.439-.413-.438q-9.59.013-19.18,0c-.33,0-.423.107-.422.429q.014,5.351.006,10.7c0,.424.006.43.44.43Z" transform="translate(-44.553 -28.823)" fill="url(#linear-gradient)"/>
    <path id="Path_25973" data-name="Path 25973" d="M518.961,29.243c.044.125.072.22.111.31.444,1.007.9,2.011,1.33,3.022a.365.365,0,0,0,.4.257c2.218-.008,4.436-.006,6.654,0,.161,0,.291,0,.374-.191.461-1.073.939-2.139,1.409-3.208a1.3,1.3,0,0,0,.047-.186c-.628,0-1.234,0-1.841,0-.384,0-.618-.2-.608-.518s.235-.49.6-.491c.676,0,1.351-.007,2.027,0a.9.9,0,0,1,.854,1.266c-.545,1.281-1.114,2.553-1.688,3.822a.857.857,0,0,1-.841.515q-3.665,0-7.33,0a.873.873,0,0,1-.855-.547c-.565-1.261-1.131-2.52-1.672-3.791a.9.9,0,0,1,.856-1.265q3.057-.01,6.114,0c.369,0,.58.193.579.508s-.211.5-.585.5q-2.77,0-5.539,0Z" transform="translate(-78.148 -139.424)" fill="url(#linear-gradient)"/>
    <path id="Path_25974" data-name="Path 25974" d="M526.788-113.377q-2.652,0-5.3,0c-.424,0-.668-.268-.575-.629a.5.5,0,0,1,.558-.382c.912,0,1.824,0,2.736,0q3.918,0,7.837,0c.284,0,.521.056.619.35.122.363-.135.662-.568.663q-2.55,0-5.1,0Z" transform="translate(-80.806 -14.436)" fill="url(#linear-gradient)"/>
    <path id="Path_25975" data-name="Path 25975" d="M548.371,47.836c-.742,0-1.483,0-2.225,0-.372,0-.583-.184-.587-.5s.209-.511.574-.511q2.276,0,4.551,0c.364,0,.576.2.57.515s-.217.492-.591.493C549.9,47.838,549.135,47.836,548.371,47.836Z" transform="translate(-102.425 -155.72)" fill="url(#linear-gradient)"/>
    <path id="Path_25976" data-name="Path 25976" d="M462.031-126.8c-.987.029-1.976.008-3.01.008,0-.474,0-.93,0-1.386a2.518,2.518,0,0,0-2.656-2.667h-1.618v-.013H437.232s0,.009,0,.013c-.622,0-1.183,0-1.743,0a2.515,2.515,0,0,0-2.547,2.546c0,.492,0,.984,0,1.507h-.4c-.957,0-1.914,0-2.871,0a.945.945,0,0,0-.984.942q-.012,3.141,0,6.282a.949.949,0,0,0,.949.944c.326.009.653,0,.98,0a.985.985,0,0,0,1.1-1.1q0-2.837,0-5.674v-.367h1.219v.389q0,1.773,0,3.546c0,.458.168.693.5.7s.514-.24.515-.716q0-.118,0-.236,0-3.023,0-6.045a1.556,1.556,0,0,1,1.719-1.712h20.605a1.56,1.56,0,0,1,1.732,1.733q0,9.085,0,18.17v.371c-1.154,0-2.256,0-3.359,0a1.029,1.029,0,0,0-1.031.67c-.332.774-.671,1.545-1,2.322-.239.571.046.985.67.986q1.875,0,3.75,0h.93a1.725,1.725,0,0,1-1.866,2.247c-4.706-.037-9.413-.015-14.12-.015q-3.192,0-6.384,0a1.567,1.567,0,0,1-1.369-.659,2.268,2.268,0,0,1-.261-1.573h.387q2.145,0,4.29,0c.662,0,.931-.413.669-1.03-.316-.744-.646-1.483-.955-2.23a1.073,1.073,0,0,0-1.1-.72c-.979.008-1.959,0-2.939,0h-.371v-.454q0-4.509,0-9.018a1.82,1.82,0,0,0-.006-.3.473.473,0,0,0-.509-.437c-.333,0-.5.217-.5.657q0,7.076,0,14.151a2.5,2.5,0,0,0,1.648,2.464.308.308,0,0,1,.227.347c-.006.45-.014.9.012,1.35a1.818,1.818,0,0,0,1.805,1.7q1.74.011,3.479,0a1.8,1.8,0,0,0,1.738-1.3,3.94,3.94,0,0,0,.091-.9c.015-.342,0-.686,0-1.018h8.078c0,.508-.02.992,0,1.473a1.819,1.819,0,0,0,1.837,1.742q1.723.008,3.445,0a1.82,1.82,0,0,0,1.824-1.72c.025-.449,0-.9.024-1.35a.428.428,0,0,1,.2-.31,2.548,2.548,0,0,0,1.658-2.535q0-10.166,0-20.332v-.419h1.219v.346q0,2.888,0,5.775a.962.962,0,0,0,1.011,1.022c.259,0,.52-.017.777,0a1.11,1.11,0,0,0,1.25-.745v-6.688A1.144,1.144,0,0,0,462.031-126.8Zm-31.346,7.144h-.967v-6.118h.967Zm27.31,13.045h-4.236c.267-.619.525-1.223.792-1.822a.206.206,0,0,1,.156-.094c1.088-.005,2.177,0,3.288,0Zm-24.019-1.922c1.105,0,2.183,0,3.261.006a.271.271,0,0,1,.2.135c.26.581.507,1.168.769,1.782h-4.228Zm6.937,7.647a.809.809,0,0,1-.829.771q-1.7.022-3.407,0a.82.82,0,0,1-.835-.871c-.007-.437,0-.873,0-1.332h5.077C440.917-101.83,440.933-101.359,440.913-100.89Zm15.179.129a.775.775,0,0,1-.8.642c-1.136.013-2.272.016-3.407,0a.82.82,0,0,1-.839-.868c-.007-.437,0-.874,0-1.345H456.1C456.1-101.8,456.139-101.279,456.092-100.761Zm6.151-18.891h-.975v-6.107h.975Z" transform="translate(0)" fill="url(#linear-gradient)"/>
  </g>
</svg>
