<svg id="clock_1_" data-name="clock (1)" xmlns="http://www.w3.org/2000/svg" width="10.763" height="10.763" viewBox="0 0 10.763 10.763">
  <g id="Group_13436" data-name="Group 13436" transform="translate(4.964 2.497)">
    <g id="Group_13435" data-name="Group 13435">
      <path id="Path_18154" data-name="Path 18154" d="M238.5,122.614l-1.5-1.125V119.2a.417.417,0,1,0-.834,0v2.5a.416.416,0,0,0,.167.333L238,123.281a.417.417,0,0,0,.5-.667Z" transform="translate(-236.169 -118.779)" fill="#fff"/>
    </g>
  </g>
  <g id="Group_13438" data-name="Group 13438">
    <g id="Group_13437" data-name="Group 13437">
      <path id="Path_18155" data-name="Path 18155" d="M5.381,0a5.381,5.381,0,1,0,5.381,5.381A5.387,5.387,0,0,0,5.381,0Zm0,9.929A4.548,4.548,0,1,1,9.929,5.381,4.553,4.553,0,0,1,5.381,9.929Z" fill="#fff"/>
    </g>
  </g>
</svg>
