<svg width="40" height="40" viewBox="0 0 40 40" fill="none" xmlns="http://www.w3.org/2000/svg">
<circle cx="20" cy="20" r="20" fill="white"/>
<path d="M26.92 13.01C26.72 12.42 26.16 12 25.5 12H14.5C13.84 12 13.29 12.42 13.08 13.01L11 19V27C11 27.55 11.45 28 12 28H13C13.55 28 14 27.55 14 27V26H26V27C26 27.55 26.45 28 27 28H28C28.55 28 29 27.55 29 27V19L26.92 13.01ZM14.5 23C13.67 23 13 22.33 13 21.5C13 20.67 13.67 20 14.5 20C15.33 20 16 20.67 16 21.5C16 22.33 15.33 23 14.5 23ZM25.5 23C24.67 23 24 22.33 24 21.5C24 20.67 24.67 20 25.5 20C26.33 20 27 20.67 27 21.5C27 22.33 26.33 23 25.5 23ZM13 18L14.5 13.5H25.5L27 18H13Z" fill="#9E9BAE"/>
</svg>
