<svg xmlns="http://www.w3.org/2000/svg" width="28.193" height="28.041" viewBox="0 0 28.193 28.041">
  <g id="Group_14359" data-name="Group 14359" transform="translate(-1984.2 622.146)" style="isolation: isolate">
    <path id="Path_15729" data-name="Path 15729" d="M1984.2-617.661l.109-.216a.981.981,0,0,1,1.476-.348,2.524,2.524,0,0,1,.263.242l4.071,4.068c.32.32.424.311.72-.073-.065-.069-.131-.142-.2-.212l-4.42-4.42c-.052-.052-.1-.1-.156-.156-.241-.252-.266-.485-.073-.674s.424-.164.674.086q2.28,2.276,4.556,4.556c.071.071.131.153.233.273l.282-.386c-.038-.04-.1-.112-.171-.18l-4.5-4.5a1.646,1.646,0,0,1-.2-.222.389.389,0,0,1,.053-.547.389.389,0,0,1,.528-.028,1.713,1.713,0,0,1,.223.2q2.24,2.238,4.477,4.48a1.688,1.688,0,0,1,.17.24c.433-.328.444-.434.129-.75q-2.063-2.065-4.128-4.127a1.1,1.1,0,0,1-.384-.82.982.982,0,0,1,1.486-.834,2.055,2.055,0,0,1,.263.2q2.7,2.267,5.394,4.537a3.7,3.7,0,0,1,1.294,2.839c.017.5.007.991,0,1.487a2.461,2.461,0,0,0,.854,1.922c.211.19.425.379.63.576a.436.436,0,0,1,.076.633.419.419,0,0,1-.634-.007,6.245,6.245,0,0,1-1.338-1.413,3.335,3.335,0,0,1-.433-1.684c0-.578,0-1.157-.035-1.733a2.837,2.837,0,0,0-1.064-2.063q-2.629-2.2-5.247-4.412c-.049-.041-.094-.1-.151-.116a.746.746,0,0,0-.217,0,.527.527,0,0,0,.022.2.909.909,0,0,0,.168.18l4.031,4.03a1.158,1.158,0,0,1,.005,1.879q-.837.837-1.675,1.674a1.136,1.136,0,0,1-1.8.006q-2-1.994-3.991-3.992a1.013,1.013,0,0,0-.177-.171,1.745,1.745,0,0,0-.278-.11c.019.1,0,.236.063.307.653.793,1.318,1.577,1.98,2.364.827.983,1.659,1.962,2.479,2.952a2.993,2.993,0,0,0,2.336,1.092c.651.02,1.3,0,1.952.048a2.894,2.894,0,0,1,1.88.936c.255.264.5.536.744.812a.418.418,0,0,1,.01.635.432.432,0,0,1-.633-.072c-.178-.184-.354-.373-.52-.569a2.6,2.6,0,0,0-2.1-.946,14.854,14.854,0,0,1-2.086-.085,3.367,3.367,0,0,1-2.152-1.222c-1.457-1.737-2.92-3.468-4.374-5.207a8.39,8.39,0,0,1-.489-.719Z" transform="translate(0 0)" fill="#fff"/>
    <path id="Path_15730" data-name="Path 15730" d="M2052.224-617.418a1.654,1.654,0,0,1,1.5.59,2.152,2.152,0,0,1,.435.925,7.611,7.611,0,0,1-1.254,5.655c-.474.709-.942,1.424-1.457,2.1a3.74,3.74,0,0,1-2.8,1.492c-.521.042-1.044.068-1.565.106a2.523,2.523,0,0,0-1.839,1.023q-3.821,4.752-7.653,9.495-2.194,2.721-4.389,5.443a2.1,2.1,0,0,1-2.375.767,2.193,2.193,0,0,1-1.617-1.89,2.032,2.032,0,0,1,.616-1.825q6.656-6.835,13.315-13.667a2.9,2.9,0,0,0,.877-2.463,10.858,10.858,0,0,1-.039-1.784,3.416,3.416,0,0,1,1.172-2.386,35.273,35.273,0,0,1,2.859-2.365A7.155,7.155,0,0,1,2052.224-617.418Zm-7.434,8.04h.07a3.281,3.281,0,0,1-1.016,2.658c-4.473,4.586-8.93,9.187-13.417,13.759a1.422,1.422,0,0,0,.521,2.3,1.387,1.387,0,0,0,1.666-.532q5.995-7.472,12.02-14.92a2.924,2.924,0,0,1,1.7-1.145,15.076,15.076,0,0,1,2.047-.214,3.155,3.155,0,0,0,2.589-1.435q.6-.876,1.193-1.751a6.938,6.938,0,0,0,1.177-5.071.917.917,0,0,0-.9-.837,6.181,6.181,0,0,0-3.872,1.018,31.566,31.566,0,0,0-2.977,2.479,2.589,2.589,0,0,0-.8,1.935C2044.783-610.551,2044.79-609.964,2044.79-609.378Z" transform="translate(-41.875 -4.394)" fill="#fff"/>
    <path id="Path_15731" data-name="Path 15731" d="M2227.611-383.586a2.282,2.282,0,0,1-3.385,2.034,2.255,2.255,0,0,1-.5-.423q-3.928-4.3-7.847-8.608a2.3,2.3,0,0,1-.278-.339.378.378,0,0,1,.087-.52.388.388,0,0,1,.507-.019,1.405,1.405,0,0,1,.217.21c2.634,2.89,5.275,5.774,7.894,8.677a1.406,1.406,0,0,0,1.862.206,1.415,1.415,0,0,0,.144-2.174c-2.972-2.68-5.923-5.383-8.882-8.078a1.408,1.408,0,0,1-.228-.237.388.388,0,0,1,.045-.526.378.378,0,0,1,.5-.062,1.445,1.445,0,0,1,.214.171q4.459,4.06,8.918,8.119A2.067,2.067,0,0,1,2227.611-383.586Z" transform="translate(-215.373 -212.861)" fill="#fff"/>
  </g>
</svg>
