<svg xmlns="http://www.w3.org/2000/svg" width="22.475" height="22.487" viewBox="0 0 22.475 22.487">
  <g id="Group_14361" data-name="Group 14361" transform="translate(-4568.094 188.389)">
    <path id="Path_15589" data-name="Path 15589" d="M4588.989-165.9h-19.314a.252.252,0,0,0-.056-.031,1.838,1.838,0,0,1-1.524-1.916q0-1,0-2,0-7.177,0-14.353a1.823,1.823,0,0,1,1.571-1.872,7.055,7.055,0,0,1,.8-.04c0-.3,0-.592,0-.883a1.334,1.334,0,0,1,.5-1.054,1.331,1.331,0,0,1,1.479-.2,1.351,1.351,0,0,1,.822,1.248c.014.3,0,.594,0,.889h4.662c0-.292,0-.569,0-.846a1.409,1.409,0,0,1,1.42-1.421,1.4,1.4,0,0,1,1.384,1.432c0,.276,0,.552,0,.838h4.654c0-.3,0-.58,0-.864a1.349,1.349,0,0,1,.44-1.017,1.33,1.33,0,0,1,1.5-.274A1.342,1.342,0,0,1,4588.2-187c.013.3,0,.593,0,.9.207,0,.381,0,.556,0a1.849,1.849,0,0,1,1.765,1.414c.014.056.033.11.049.165v17.035c-.015.048-.033.094-.045.143a1.827,1.827,0,0,1-1.122,1.306C4589.268-165.98,4589.126-165.946,4588.989-165.9Zm-20.014-14.928h8.184c.066,0,.132,0,.2,0a.442.442,0,0,1,.438.431.443.443,0,0,1-.447.444c-.065,0-.132,0-.2,0h-8.177v10.335a.98.98,0,0,0,1.091,1.081h18.545a.979.979,0,0,0,1.083-1.088v-10.328h-8.206a1.946,1.946,0,0,1-.219,0,.441.441,0,0,1-.4-.426.44.44,0,0,1,.4-.444,2.055,2.055,0,0,1,.219,0h8.172c.015-.033.026-.046.026-.058,0-1.141.009-2.283,0-3.424a.931.931,0,0,0-.819-.894,5.539,5.539,0,0,0-.667,0c0,.233.015.453,0,.669a2.015,2.015,0,0,1-.116.575,1.38,1.38,0,0,1-1.51.835,1.4,1.4,0,0,1-1.174-1.341c-.008-.245,0-.491,0-.735h-4.655c0,.221.009.432,0,.642a2.024,2.024,0,0,1-.075.5,1.394,1.394,0,0,1-1.505.949,1.413,1.413,0,0,1-1.221-1.369c-.008-.238,0-.476,0-.712h-4.662c0,.242,0,.468,0,.694a1.407,1.407,0,0,1-1.421,1.4,1.405,1.405,0,0,1-1.383-1.413c0-.225,0-.45,0-.687a6.179,6.179,0,0,0-.653,0,.932.932,0,0,0-.833.882C4568.966-183.173,4568.975-182.018,4568.975-180.83Zm.013,12.907a.972.972,0,0,0,1.036,1.142h18.609c.059,0,.117,0,.175,0a.944.944,0,0,0,.848-1.129,2.294,2.294,0,0,1-1.249.257q-9.119-.005-18.237,0A2.207,2.207,0,0,1,4568.988-167.923Zm3.405-17.812c0-.388,0-.776,0-1.163a.539.539,0,0,0-.524-.6.535.535,0,0,0-.525.6q0,1.152,0,2.3a.537.537,0,0,0,.522.6.539.539,0,0,0,.528-.6C4572.4-184.974,4572.394-185.355,4572.394-185.735Zm14.927-.013c0-.388,0-.776,0-1.163a.533.533,0,0,0-.513-.591.535.535,0,0,0-.536.591q0,1.163,0,2.327a.535.535,0,0,0,.537.591.534.534,0,0,0,.512-.591C4587.323-184.972,4587.321-185.36,4587.321-185.748Zm-7.46,0c0-.4,0-.79,0-1.185a.528.528,0,0,0-.51-.57.531.531,0,0,0-.538.568q-.007,1.185,0,2.371a.532.532,0,0,0,.536.571.528.528,0,0,0,.513-.568C4579.863-184.957,4579.86-185.352,4579.86-185.747Z" transform="translate(0 0)" fill="#59265b"/>
    <path id="Path_15590" data-name="Path 15590" d="M4730.312,45.578a1.049,1.049,0,0,1-1.01-1.206c.084-.512.179-1.022.255-1.535a.324.324,0,0,0-.076-.242c-.337-.345-.682-.682-1.032-1.014a1.019,1.019,0,0,1,.587-1.809c.471-.058.941-.13,1.408-.213a.381.381,0,0,0,.239-.172c.225-.426.436-.86.645-1.294a1.017,1.017,0,0,1,1.884,0c.209.434.419.868.644,1.294a.377.377,0,0,0,.237.173c.5.086,1,.149,1.5.226a.972.972,0,0,1,.823.667.957.957,0,0,1-.243,1.049c-.358.365-.728.719-1.1,1.073a.274.274,0,0,0-.094.285c.094.487.169.979.254,1.468a.977.977,0,0,1-.4,1.024.967.967,0,0,1-1.076.071c-.448-.23-.889-.475-1.34-.7a.379.379,0,0,0-.294,0c-.426.209-.84.443-1.265.654A4.981,4.981,0,0,1,4730.312,45.578Zm-.145-1.061c0,.14.089.186.256.1.506-.261,1.015-.519,1.512-.8a.637.637,0,0,1,.68,0c.486.269.979.523,1.473.777a.785.785,0,0,0,.224.041.791.791,0,0,0,.036-.24c-.09-.563-.181-1.126-.287-1.686a.573.573,0,0,1,.188-.569c.408-.388.809-.784,1.208-1.181a1.05,1.05,0,0,0,.129-.212.91.91,0,0,0-.238-.117c-.549-.087-1.1-.168-1.649-.239a.59.59,0,0,1-.508-.355c-.238-.5-.486-1-.738-1.493a.184.184,0,1,0-.364-.009c-.249.488-.5.977-.728,1.474a.62.62,0,0,1-.535.386c-.558.07-1.115.156-1.67.243-.071.011-.173.054-.189.105s.042.145.093.2c.362.362.718.732,1.1,1.07a.814.814,0,0,1,.289.889C4730.328,43.43,4730.261,43.969,4730.167,44.517Z" transform="translate(-152.936 -215.915)" fill="#59265b"/>
    <path id="Path_15591" data-name="Path 15591" d="M4814.536-16.056a.443.443,0,0,1-.442.444.443.443,0,0,1-.432-.431.443.443,0,0,1,.442-.444A.443.443,0,0,1,4814.536-16.056Z" transform="translate(-234.767 -164.342)" fill="#59265b"/>
  </g>
</svg>
