<svg width="32" height="32" viewBox="0 0 32 32" fill="none" xmlns="http://www.w3.org/2000/svg">
<path d="M16 31C7.729 31 1 24.271 1 16C1 7.729 7.729 1 16 1C24.271 1 31 7.729 31 16C31 24.271 24.271 31 16 31ZM16 3C8.832 3 3 8.832 3 16C3 23.168 8.832 29 16 29C23.168 29 29 23.168 29 16C29 8.832 23.168 3 16 3Z" fill="#C84343"/>
<path d="M16 12C14.346 12 13 10.654 13 9C13 7.346 14.346 6 16 6C17.654 6 19 7.346 19 9C19 10.654 17.654 12 16 12ZM16 8C15.7348 8 15.4804 8.10536 15.2929 8.29289C15.1054 8.48043 15 8.73478 15 9C15 9.26522 15.1054 9.51957 15.2929 9.70711C15.4804 9.89464 15.7348 10 16 10C16.2652 10 16.5196 9.89464 16.7071 9.70711C16.8946 9.51957 17 9.26522 17 9C17 8.73478 16.8946 8.48043 16.7071 8.29289C16.5196 8.10536 16.2652 8 16 8ZM16 26C14.346 26 13 24.654 13 23V16C13 14.346 14.346 13 16 13C17.654 13 19 14.346 19 16V23C19 24.654 17.654 26 16 26ZM16 15C15.7348 15 15.4804 15.1054 15.2929 15.2929C15.1054 15.4804 15 15.7348 15 16V23C15 23.2652 15.1054 23.5196 15.2929 23.7071C15.4804 23.8946 15.7348 24 16 24C16.2652 24 16.5196 23.8946 16.7071 23.7071C16.8946 23.5196 17 23.2652 17 23V16C17 15.7348 16.8946 15.4804 16.7071 15.2929C16.5196 15.1054 16.2652 15 16 15Z" fill="#C84343"/>
</svg>
