<svg width="23" height="23" viewBox="0 0 23 23" fill="none" xmlns="http://www.w3.org/2000/svg">
<g clip-path="url(#clip0_133_6548)">
<path d="M11.064 12.9081C12.5917 12.9081 13.8301 11.6697 13.8301 10.142C13.8301 8.61438 12.5917 7.37598 11.064 7.37598C9.53637 7.37598 8.29797 8.61438 8.29797 10.142C8.29797 11.6697 9.53637 12.9081 11.064 12.9081Z" stroke="white" stroke-width="1.61352" stroke-linecap="round" stroke-linejoin="round"/>
<path d="M16.2799 15.358L12.3678 19.2701C12.022 19.6156 11.5532 19.8096 11.0645 19.8096C10.5758 19.8096 10.107 19.6156 9.76124 19.2701L5.84821 15.358C4.81668 14.3264 4.11421 13.0122 3.82963 11.5813C3.54505 10.1505 3.69115 8.66745 4.24944 7.31967C4.80773 5.97188 5.75315 4.81991 6.96613 4.00943C8.17912 3.19895 9.6052 2.76636 11.064 2.76636C12.5229 2.76636 13.949 3.19895 15.1619 4.00943C16.3749 4.81991 17.3204 5.97188 17.8786 7.31967C18.4369 8.66745 18.583 10.1505 18.2984 11.5813C18.0139 13.0122 17.3114 14.3264 16.2799 15.358V15.358Z" stroke="white" stroke-width="1.61352" stroke-linecap="round" stroke-linejoin="round"/>
</g>
<defs>
<clipPath id="clip0_133_6548">
<rect width="22.1539" height="22.1283" fill="white"/>
</clipPath>
</defs>
</svg>
