<svg xmlns="http://www.w3.org/2000/svg" width="19.252" height="33.953" viewBox="0 0 19.252 33.953">
  <g id="Group_14396" data-name="Group 14396" transform="translate(-873.682 273.539)">
    <path id="Path_25977" data-name="Path 25977" d="M890.084-241.826c0,.39.006.754,0,1.118a1.123,1.123,0,0,1-1.127,1.117q-.565.01-1.131,0a1.122,1.122,0,0,1-1.131-1.15c0-.353,0-.705,0-1.085H879.9c0,.343,0,.692,0,1.04a1.134,1.134,0,0,1-1.194,1.2c-.354,0-.707.005-1.06,0a1.118,1.118,0,0,1-1.135-1.145c-.005-.363,0-.725,0-1.1a2.9,2.9,0,0,1-2.09-.941,2.693,2.693,0,0,1-.737-1.859q0-8.536,0-17.072a2.806,2.806,0,0,1,2.778-2.767c.376,0,.752,0,1.179,0,0-.142,0-.266,0-.39,0-2.25.029-4.5,0-6.751a1.834,1.834,0,0,1,1.908-1.923c2.532.044,5.066.014,7.6.014a1.688,1.688,0,0,1,1.826,1.827c0,2.25-.01,4.5-.016,6.751,0,.14,0,.28,0,.471h1.027a2.808,2.808,0,0,1,2.93,2.935c0,5.5-.033,11,.021,16.506A3,3,0,0,1,890.084-241.826Zm-15.273-11.335q0,4.117,0,8.234a1.729,1.729,0,0,0,1.934,1.942h13.076a1.734,1.734,0,0,0,1.962-1.95q0-8.234,0-16.469a1.727,1.727,0,0,0-1.934-1.943H876.737a1.725,1.725,0,0,0-1.926,1.915Q874.81-257.3,874.811-253.162Zm13.013-11.33c0-.145,0-.261,0-.377q0-3.356.005-6.711c0-.659-.152-.814-.8-.814h-7.382c-.7,0-.848.147-.851.85q-.012,3.356-.021,6.711c0,.113.01.226.015.329h2.25c0-.369,0-.71,0-1.051a1.117,1.117,0,0,1,1.166-1.183q1.095-.007,2.19,0a1.117,1.117,0,0,1,1.167,1.182c0,.35,0,.7,0,1.064Zm-3.424.008v-1.1h-2.208v1.1Zm-5.651,23.747v-1.09h-1.092v1.09Zm9.1-1.1v1.1h1.086v-1.1Z" transform="translate(0 0)" fill="#fff"/>
    <path id="Path_25978" data-name="Path 25978" d="M927.559-117.411c0-1.932-.008-3.865.012-5.8a.863.863,0,0,1,.276-.591.54.54,0,0,1,.833.381,1.506,1.506,0,0,1,.007.247q0,5.8,0,11.594c0,.416-.147.645-.442.7-.4.077-.684-.181-.685-.633,0-1.473,0-2.946,0-4.419Q927.559-116.668,927.559-117.411Z" transform="translate(-48.787 -135.506)" fill="#fff"/>
    <path id="Path_25979" data-name="Path 25979" d="M969.469-117.411c0-1.932-.008-3.865.012-5.8a.862.862,0,0,1,.276-.591.541.541,0,0,1,.834.381,1.459,1.459,0,0,1,.008.247q0,5.8,0,11.594c0,.326-.073.592-.412.693-.4.118-.718-.161-.719-.624,0-1.473,0-2.946,0-4.418Z" transform="translate(-86.738 -135.505)" fill="#fff"/>
    <path id="Path_25980" data-name="Path 25980" d="M1011.405-116.975c0-1.944-.009-3.887.013-5.831a.793.793,0,0,1,.307-.567.661.661,0,0,1,.577.047.633.633,0,0,1,.223.476q.018,5.9.007,11.8a.562.562,0,0,1-.558.6.57.57,0,0,1-.567-.628Q1011.4-114.024,1011.405-116.975Z" transform="translate(-124.713 -135.939)" fill="#fff"/>
  </g>
</svg>
