<svg xmlns="http://www.w3.org/2000/svg" xmlns:xlink="http://www.w3.org/1999/xlink" width="34.67" height="35.18" viewBox="0 0 34.67 35.18">
  <defs>
    <linearGradient id="linear-gradient" x1="0.552" y1="-8.198" x2="0.406" y2="-2.111" gradientUnits="objectBoundingBox">
      <stop offset="0" stop-color="#202b76"/>
      <stop offset="1" stop-color="#59265b"/>
    </linearGradient>
  </defs>
  <g id="Group_14367" data-name="Group 14367" transform="translate(0)" style="isolation: isolate">
    <path id="Path_15735" data-name="Path 15735" d="M3384.09-389.512c-.746-.244-1.487-.5-2.24-.725a8.6,8.6,0,0,0-1.139-.228c-.38-.059-.579-.244-.556-.562a.5.5,0,0,1,.635-.459,9.652,9.652,0,0,1,1.912.5,4.647,4.647,0,0,0,3.948-.006,5.349,5.349,0,0,1,4.618.005,4.5,4.5,0,0,0,3.912,0,5.343,5.343,0,0,1,4.617,0,4.5,4.5,0,0,0,3.912,0,5.345,5.345,0,0,1,4.617,0,4.631,4.631,0,0,0,3.948,0,9.387,9.387,0,0,1,1.844-.489c.411-.084.68.125.7.454s-.184.489-.589.568c-.512.1-1.017.245-1.519.39-.612.176-1.218.371-1.827.557h-1.168c-.745-.239-1.491-.472-2.233-.719a4.511,4.511,0,0,0-2.951.009c-.741.251-1.49.474-2.236.71h-1.1c-.745-.238-1.493-.466-2.234-.715a4.518,4.518,0,0,0-2.952,0c-.741.249-1.489.477-2.234.715h-1.168c-.754-.248-1.505-.5-2.261-.743a4.477,4.477,0,0,0-2.856.023c-.742.249-1.489.481-2.234.72Z" transform="translate(-3380.154 424.692)" fill="url(#linear-gradient)"/>
    <path id="Path_15736" data-name="Path 15736" d="M3387.152-761.382c.344-.139.65-.261.956-.386q4.534-1.867,9.067-3.74a1.183,1.183,0,0,1,.983,0q4.83,2.005,9.67,3.987c.1.043.21.081.366.141-.064-.569-.124-1.1-.185-1.626-.056-.489-.123-.977-.167-1.466a.523.523,0,0,1,.405-.625c.323-.066.573.159.622.564.133,1.113.271,2.226.389,3.341a.41.41,0,0,0,.3.391c1.135.457,2.264.925,3.395,1.393a1.41,1.41,0,0,1,.847,2.075q-2.435,5.765-4.871,11.529c-.031.073-.06.148-.1.254a3.649,3.649,0,0,0,1.757.326,5.465,5.465,0,0,0,1.919-.458,11.393,11.393,0,0,1,1.849-.463.486.486,0,0,1,.63.42.5.5,0,0,1-.528.583,6.156,6.156,0,0,0-1.964.567,5.15,5.15,0,0,1-4.138-.052,4.859,4.859,0,0,0-3.135-.407,7.866,7.866,0,0,0-1.188.433,5.223,5.223,0,0,1-4.235-.034,4.858,4.858,0,0,0-4.233-.006,5.163,5.163,0,0,1-4.422-.04,4.556,4.556,0,0,0-3.468-.22c-.378.128-.732.331-1.112.449a5.384,5.384,0,0,1-3.759-.141,5.588,5.588,0,0,0-1.9-.546.51.51,0,0,1-.547-.569c.029-.311.251-.457.649-.448a5.574,5.574,0,0,1,2.135.585,4.432,4.432,0,0,0,2.988.18,3.631,3.631,0,0,0,.394-.153l-1.729-4.1q-1.622-3.838-3.245-7.675a1.414,1.414,0,0,1,.854-2.1c1.13-.467,2.26-.935,3.394-1.394a.387.387,0,0,0,.283-.364c.308-2.717.638-5.431.942-8.149a2.093,2.093,0,0,1,1.158-1.919,3.049,3.049,0,0,1,1.03-.2c.545-.031,1.093-.008,1.672-.008,0-.544,0-1.046,0-1.547a1.364,1.364,0,0,1,1.541-1.543c.983,0,1.967,0,3.017,0,0-.328,0-.631,0-.933,0-.229,0-.459.017-.686a1.023,1.023,0,0,1,1.021-.965q1.184-.025,2.37,0a1.02,1.02,0,0,1,1.043,1.016c.027.5.005,1,.005,1.545.156.009.276.023.4.023.894,0,1.787,0,2.68,0a1.347,1.347,0,0,1,1.49,1.489c0,.514,0,1.029,0,1.583.141.006.261.016.381.017.527,0,1.054-.011,1.58.014a1.884,1.884,0,0,1,1.819,1.617c.138.916.233,1.839.335,2.76a.519.519,0,0,1-.461.612.506.506,0,0,1-.555-.488q-.151-1.157-.274-2.318c-.094-.89-.384-1.164-1.269-1.164h-16.7c-.886,0-1.169.275-1.269,1.164-.284,2.5-.582,5-.873,7.5C3387.164-761.643,3387.162-761.532,3387.152-761.382Zm24.988,5.309c-.133-.058-.226-.1-.32-.138q-6.943-2.725-13.889-5.441a.824.824,0,0,0-.547.007q-4.891,1.9-9.771,3.825c-.486.19-.78.123-.907-.2s.05-.571.538-.762q4.98-1.953,9.959-3.911a1.166,1.166,0,0,1,.921,0q5.55,2.192,11.107,4.364c1.095.429,2.19.857,3.313,1.3.094-.219.18-.416.264-.613.231-.541.2-.627-.34-.848q-7.248-2.98-14.493-5.965a.737.737,0,0,0-.616,0q-5.166,2.135-10.338,4.256c-1.427.587-2.853,1.177-4.282,1.76-.258.105-.42.255-.313.545s.239.562.364.85c.094-.031.158-.049.221-.074.565-.218,1.123-.46,1.7-.643a.725.725,0,0,1,.584.107.577.577,0,0,1,.106.517.714.714,0,0,1-.393.34c-.586.251-1.185.475-1.814.722l4.28,10.133a5.672,5.672,0,0,1,3.967.276,4.57,4.57,0,0,0,4.007-.028,5.177,5.177,0,0,1,4.423-.009,4.832,4.832,0,0,0,4.14.009,5.975,5.975,0,0,1,1.885-.437,14.478,14.478,0,0,1,2.01.1C3409.29-749.324,3410.708-752.681,3412.14-756.073Zm-8.713-15.4c0-.5,0-.972,0-1.44,0-.568-.034-.6-.6-.6h-10.3a.7.7,0,0,0-.3.014c-.115.062-.281.175-.286.273-.027.578-.013,1.157-.013,1.754Zm-4.564-4.611h-2.392c0,.461-.009.905.01,1.348a.284.284,0,0,0,.207.182q.979.022,1.958,0a.285.285,0,0,0,.208-.181C3398.872-775.174,3398.863-775.618,3398.863-776.08Z" transform="translate(-3380.332 777.137)" fill="url(#linear-gradient)"/>
    <path id="Path_15737" data-name="Path 15737" d="M3554.743-685.05c-.527,0-1.054.005-1.581,0a.864.864,0,0,1-.922-.893c-.017-.5-.018-1.008,0-1.511a.87.87,0,0,1,.9-.884q1.614-.018,3.229,0a.869.869,0,0,1,.9.884c.019.5.018,1.008,0,1.511a.864.864,0,0,1-.922.893C3555.819-685.045,3555.281-685.05,3554.743-685.05Zm1.49-2.235h-2.941v1.187h2.941Z" transform="translate(-3537.425 695.987)" fill="url(#linear-gradient)"/>
    <path id="Path_15738" data-name="Path 15738" d="M3484.158-685.058c-.526,0-1.053.006-1.58,0a.855.855,0,0,1-.9-.907q-.01-.738,0-1.477a.856.856,0,0,1,.876-.9q1.631-.023,3.263,0a.865.865,0,0,1,.886.93c.005.481.007.962,0,1.442a.865.865,0,0,1-.93.915C3485.235-685.054,3484.7-685.058,3484.158-685.058Zm-1.432-1.054h2.928V-687.3h-2.928Z" transform="translate(-3472.939 695.995)" fill="url(#linear-gradient)"/>
    <path id="Path_15739" data-name="Path 15739" d="M3625.622-685.057c-.538,0-1.076.005-1.614,0a.862.862,0,0,1-.905-.905q-.011-.738,0-1.477a.862.862,0,0,1,.877-.9q1.632-.023,3.264,0a.855.855,0,0,1,.885.895q.012.755,0,1.511a.858.858,0,0,1-.892.883h-1.615Zm1.455-1.043v-1.2h-2.918v1.2Z" transform="translate(-3602.197 695.994)" fill="url(#linear-gradient)"/>
  </g>
</svg>
