<svg width="23" height="23" viewBox="0 0 23 23" fill="none" xmlns="http://www.w3.org/2000/svg">
<g clip-path="url(#clip0_2_1029)">
<path d="M7.18041 13.1764C8.68418 13.1764 9.89806 11.9625 9.89806 10.4587C9.89806 8.95497 8.68418 7.74108 7.18041 7.74108C5.67665 7.74108 4.46276 8.95497 4.46276 10.4587C4.46276 11.9625 5.67665 13.1764 7.18041 13.1764ZM7.18041 9.55285C7.67865 9.55285 8.08629 9.9605 8.08629 10.4587C8.08629 10.957 7.67865 11.3646 7.18041 11.3646C6.68218 11.3646 6.27453 10.957 6.27453 10.4587C6.27453 9.9605 6.68218 9.55285 7.18041 9.55285ZM18.051 6.8352H10.8039V14.0823H3.55688V5.02344H1.74512V18.6117H3.55688V15.894H19.8628V18.6117H21.6745V10.4587C21.6745 8.45673 20.053 6.8352 18.051 6.8352ZM19.8628 14.0823H12.6157V8.64697H18.051C19.0475 8.64697 19.8628 9.46226 19.8628 10.4587V14.0823Z" fill="#E7B4FF"/>
</g>
<defs>
<clipPath id="clip0_2_1029">
<rect width="21.7412" height="21.7412" fill="white" transform="translate(0.839355 0.494141)"/>
</clipPath>
</defs>
</svg>
