<svg xmlns="http://www.w3.org/2000/svg" xmlns:xlink="http://www.w3.org/1999/xlink" width="25.639" height="35.13" viewBox="0 0 25.639 35.13">
  <defs>
    <linearGradient id="linear-gradient" x1="-0.119" y1="0.064" x2="1" y2="0.757" gradientUnits="objectBoundingBox">
      <stop offset="0" stop-color="#122d7d"/>
      <stop offset="1" stop-color="#59265b"/>
    </linearGradient>
  </defs>
  <g id="Group_14366" data-name="Group 14366" transform="translate(0 0)" style="isolation: isolate">
    <path id="Path_15744" data-name="Path 15744" d="M3290.54-1244.544c.591.046,1.182.085,1.773.139a16.145,16.145,0,0,1,4.657.912,2.573,2.573,0,0,1,1.6,1.311,1.529,1.529,0,0,1,.087.757.642.642,0,0,1-.667.529.668.668,0,0,1-.692-.505.729.729,0,0,0-.544-.6c-.822-.267-1.653-.5-2.506-.761l-1.048,2.623c.353.017.668.024.982.048,1.208.09,2.418.154,3.62.291a7.636,7.636,0,0,1,1.653.421,3.065,3.065,0,0,1,2.133,2.8,10.17,10.17,0,0,1,.054,1.027q.005,8.989,0,17.978a5.968,5.968,0,0,1-.609,2.817,4.24,4.24,0,0,1-2.628,2.153c-.087.027-.172.057-.258.087-.008,0-.012.018-.038.065l.573.4c.6.416,1.207.827,1.8,1.249a.744.744,0,0,1,.281,1.088.745.745,0,0,1-1.121.108c-1.236-.846-2.463-1.7-3.7-2.542a1.068,1.068,0,0,0-.564-.175q-6.553-.015-13.106,0a1.072,1.072,0,0,0-.564.178c-1.221.825-2.426,1.676-3.652,2.5a1.3,1.3,0,0,1-.724.215.63.63,0,0,1-.564-.566.747.747,0,0,1,.375-.785q1.028-.714,2.06-1.422c.093-.064.183-.132.294-.211-.316-.162-.627-.29-.9-.469a5.2,5.2,0,0,1-2.569-4.538c-.03-6.084-.014-12.168-.007-18.252a4.415,4.415,0,0,1,.553-2.441,3.446,3.446,0,0,1,2.044-1.4,17.065,17.065,0,0,1,4.135-.544c.554-.029,1.112,0,1.733,0l-1.074-2.684c-.836.249-1.656.481-2.467.743a.8.8,0,0,0-.591.642.673.673,0,0,1-.81.467.739.739,0,0,1-.587-.809,1.654,1.654,0,0,1,.778-1.233,5.969,5.969,0,0,1,2.662-1.026c1.386-.214,2.787-.339,4.181-.5l.539-.064Zm9.615,17.951c0-3.18.01-6.359-.005-9.539a1.851,1.851,0,0,0-1.493-1.99,11.809,11.809,0,0,0-3.217-.442q-6.62-.269-13.241,0a11.684,11.684,0,0,0-3.315.473,1.824,1.824,0,0,0-1.365,1.626,8.879,8.879,0,0,0-.035.891q0,9.007-.006,18.015a3.742,3.742,0,0,0,.551,2.056,3.211,3.211,0,0,0,2.9,1.721c5.1-.039,10.2-.016,15.3-.016.217,0,.435,0,.652-.012a3.114,3.114,0,0,0,3.26-3.313C3300.183-1220.279,3300.156-1223.436,3300.155-1226.593Zm-15.223-16.3c.358.9.7,1.755,1.052,2.606a.339.339,0,0,0,.265.131c1.714.008,3.428,0,5.142.01a.291.291,0,0,0,.32-.225c.223-.586.462-1.167.693-1.75.1-.248.194-.5.3-.768A41.552,41.552,0,0,0,3284.932-1242.891Z" transform="translate(-3276.002 1244.544)" fill="url(#linear-gradient)"/>
    <path id="Path_15745" data-name="Path 15745" d="M3319.885-1142.351q3.654,0,7.309,0a3.232,3.232,0,0,1,1.649.384,1.75,1.75,0,0,1,.956,1.593c.007,2.688.015,5.376,0,8.063a2.494,2.494,0,0,1-2.306,2.387c-.125.009-.251.013-.377.013-4.815,0-9.631-.015-14.445.011a2.585,2.585,0,0,1-2.526-1.78,3.1,3.1,0,0,1-.1-.812c-.007-2.516.036-5.033-.019-7.548a2.129,2.129,0,0,1,2.143-2.294c.182-.016.366-.015.549-.015Zm.008,1.459q-3.584,0-7.168,0a3.636,3.636,0,0,0-.681.057c-.431.083-.547.24-.547.684q0,3.824,0,7.648a1.047,1.047,0,0,0,1.128,1.129h14.542a1.094,1.094,0,0,0,1.176-1.168q0-3.653,0-7.305c0-.825-.144-.98-.971-1.042-.114-.009-.229-.006-.343-.006Z" transform="translate(-3307.098 1151.136)" fill="url(#linear-gradient)"/>
    <path id="Path_15746" data-name="Path 15746" d="M3316.076-969.051a2.937,2.937,0,0,1-2.931,2.915,2.954,2.954,0,0,1-2.912-2.94,2.954,2.954,0,0,1,2.938-2.914A2.936,2.936,0,0,1,3316.076-969.051Zm-2.932,1.442a1.459,1.459,0,0,0,1.475-1.44,1.457,1.457,0,0,0-1.447-1.468,1.457,1.457,0,0,0-1.477,1.44A1.459,1.459,0,0,0,3313.144-967.609Z" transform="translate(-3307.291 995.418)" fill="url(#linear-gradient)"/>
    <path id="Path_15747" data-name="Path 15747" d="M3472.139-969.053a2.936,2.936,0,0,1,2.907-2.937,2.954,2.954,0,0,1,2.936,2.915,2.954,2.954,0,0,1-2.914,2.938A2.939,2.939,0,0,1,3472.139-969.053Zm2.909,1.443a1.458,1.458,0,0,0,1.472-1.445,1.46,1.46,0,0,0-1.453-1.464,1.459,1.459,0,0,0-1.471,1.446A1.457,1.457,0,0,0,3475.048-967.61Z" transform="translate(-3455.28 995.418)" fill="url(#linear-gradient)"/>
  </g>
</svg>
