<svg xmlns="http://www.w3.org/2000/svg" width="16.776" height="20.124" viewBox="0 0 16.776 20.124">
  <g id="Group_14363" data-name="Group 14363" transform="translate(-5203.844 725.107)">
    <path id="Path_15594" data-name="Path 15594" d="M5206.946-517.111c-.235-.05-.474-.085-.7-.151a3.145,3.145,0,0,1-2.386-3.009,10.732,10.732,0,0,1,.7-4.544,4.18,4.18,0,0,1,1.864-2.25,3.674,3.674,0,0,1,1.83-.439,1.4,1.4,0,0,1,.6.207c.3.162.575.364.864.542a4.473,4.473,0,0,0,5.049,0c.233-.145.471-.284.691-.449a1.674,1.674,0,0,1,1.324-.269,3.727,3.727,0,0,1,2.849,2.047,8.4,8.4,0,0,1,.916,3.264,16.121,16.121,0,0,1,.078,1.764,3.219,3.219,0,0,1-2.972,3.255.761.761,0,0,0-.128.037Zm5.288-1.179v0c1.663,0,3.327.015,4.99,0a2.1,2.1,0,0,0,2.22-2.278,15.281,15.281,0,0,0-.084-1.568,7.232,7.232,0,0,0-.75-2.685,2.534,2.534,0,0,0-2.172-1.489.518.518,0,0,0-.274.067c-.253.149-.5.316-.746.472a5.59,5.59,0,0,1-5.767.34c-.461-.227-.883-.535-1.325-.8a.432.432,0,0,0-.212-.085,2.4,2.4,0,0,0-1.664.688,3.848,3.848,0,0,0-.838,1.339,10.12,10.12,0,0,0-.581,3.955,1.955,1.955,0,0,0,.991,1.726,2.709,2.709,0,0,0,1.417.327Z" transform="translate(0 -187.872)" fill="#59265b"/>
    <path id="Path_15595" data-name="Path 15595" d="M5282.965-720.265a4.843,4.843,0,0,1-4.839,4.852,4.845,4.845,0,0,1-4.856-4.834,4.837,4.837,0,0,1,4.847-4.861A4.836,4.836,0,0,1,5282.965-720.265Zm-4.849,3.673a3.659,3.659,0,0,0,3.67-3.668,3.655,3.655,0,0,0-3.669-3.668,3.652,3.652,0,0,0-3.668,3.667A3.656,3.656,0,0,0,5278.117-716.592Z" transform="translate(-66.009 0)" fill="#59265b"/>
  </g>
</svg>
