<svg xmlns="http://www.w3.org/2000/svg" width="14.157" height="14.157" viewBox="0 0 14.157 14.157">
  <g id="Group_14318" data-name="Group 14318" transform="translate(-3364.402 -334.378)">
    <path id="Path_15547" data-name="Path 15547" d="M3375.131,334.378h1.106v1.106h.613a1.659,1.659,0,0,1,1.709,1.711q0,4.817,0,9.634a1.838,1.838,0,0,1-.042.411,1.653,1.653,0,0,1-1.671,1.3h-10.726c-.037,0-.074,0-.11,0a1.652,1.652,0,0,1-1.269-.658,1.905,1.905,0,0,1-.337-.806V336.95a.334.334,0,0,0,.021-.051,1.655,1.655,0,0,1,1.747-1.415h.555v-1.106h1.106v1.1h7.3Zm2.323,5.208h-11.946v7.183a.574.574,0,0,0,.658.66H3376.8a.574.574,0,0,0,.657-.661q0-3.511,0-7.022Zm-2.32-2.986h-7.306v1.088h-1.108v-1.1c-.222,0-.429,0-.636,0a.551.551,0,0,0-.574.576c0,.336,0,.673,0,1.009v.285h11.944c0-.456.006-.9,0-1.349a.518.518,0,0,0-.46-.509c-.245-.022-.494,0-.756,0v1.092h-1.1Z" transform="translate(0 0)"/>
    <path id="Path_15548" data-name="Path 15548" d="M3426.5,518.31V519.4h-1.089V518.31Z" transform="translate(-58.894 -177.562)"/>
    <path id="Path_15549" data-name="Path 15549" d="M3489.21,518.095h1.086v1.093h-1.086Z" transform="translate(-120.486 -177.355)"/>
    <path id="Path_15550" data-name="Path 15550" d="M3552.909,519.428v-1.086H3554v1.086Z" transform="translate(-181.979 -177.593)"/>
    <path id="Path_15551" data-name="Path 15551" d="M3616.895,519.313v-1.089h1.089v1.089Z" transform="translate(-243.748 -177.479)"/>
    <path id="Path_15552" data-name="Path 15552" d="M3680.776,518.176h1.09v1.093h-1.09Z" transform="translate(-305.417 -177.433)"/>
    <path id="Path_15553" data-name="Path 15553" d="M3425.25,583.258v-1.09h1.092v1.09Z" transform="translate(-58.741 -239.209)"/>
    <path id="Path_15554" data-name="Path 15554" d="M3490.366,582.178v1.089h-1.089v-1.089Z" transform="translate(-120.55 -239.218)"/>
    <path id="Path_15555" data-name="Path 15555" d="M3553.01,583.2v-1.089h1.089V583.2Z" transform="translate(-182.076 -239.151)"/>
    <path id="Path_15556" data-name="Path 15556" d="M3616.969,582.1h1.09v1.089h-1.09Z" transform="translate(-243.821 -239.138)"/>
    <path id="Path_15557" data-name="Path 15557" d="M3681.933,582.118v1.088h-1.091v-1.088Z" transform="translate(-305.481 -239.161)"/>
    <path id="Path_15558" data-name="Path 15558" d="M3426.489,646.052v1.089H3425.4v-1.089Z" transform="translate(-58.885 -300.88)"/>
    <path id="Path_15559" data-name="Path 15559" d="M3489.241,645.948h1.089v1.089h-1.089Z" transform="translate(-120.516 -300.78)"/>
    <path id="Path_15560" data-name="Path 15560" d="M3553.01,647.072v-1.089h1.089v1.089Z" transform="translate(-182.076 -300.814)"/>
    <path id="Path_15561" data-name="Path 15561" d="M3616.887,647.071v-1.089h1.089v1.089Z" transform="translate(-243.741 -300.813)"/>
  </g>
</svg>
