<svg xmlns="http://www.w3.org/2000/svg" width="40.016" height="40.253" viewBox="0 0 40.016 40.253">
  <g id="Group_14360" data-name="Group 14360" transform="translate(-2501.087 306.266)" style="isolation: isolate">
    <path id="Path_15723" data-name="Path 15723" d="M2514-306.266a1.084,1.084,0,0,1,.669,1.182c.3,0,.547,0,.8,0a1.194,1.194,0,0,1,1.292,1.3q0,4.992,0,9.983v.509h2.1a1.989,1.989,0,0,1,2.235,2.224q0,2.378,0,4.756v.448h1.1c0-.415,0-.828,0-1.242,0-.828.377-1.216,1.192-1.218q3.209-.006,6.419,0a1.038,1.038,0,0,1,1.177,1.156c.008.428,0,.857,0,1.329h.51c2.534,0,5.068.034,7.6-.014a1.862,1.862,0,0,1,2.005,1.985c-.027,5.293-.012,10.586-.012,15.879a1.756,1.756,0,0,1-1.958,1.972h-25.086a1.736,1.736,0,0,1-1.944-1.935c0-.247,0-.493,0-.768h-6.674c0,.707.007,1.4,0,2.087a.571.571,0,0,1-.541.609.567.567,0,0,1-.617-.489,2.05,2.05,0,0,1-.02-.43c0-.586,0-1.172,0-1.8-.394,0-.745,0-1.1,0a1.952,1.952,0,0,1-2.061-2.081q0-5.935,0-11.87a1.188,1.188,0,0,1,.047-.385.536.536,0,0,1,.611-.385.542.542,0,0,1,.514.507,2.84,2.84,0,0,1,.009.392q0,5.778,0,11.556c0,.853.225,1.083,1.062,1.083h15.556c.794,0,1.024-.233,1.024-1.033q0-10.042,0-20.085c0-.815-.24-1.057-1.051-1.057h-15.556c-.777,0-1.034.26-1.035,1.043q0,2.732,0,5.463c0,.118.005.236,0,.354a.577.577,0,0,1-.576.577.582.582,0,0,1-.593-.525,1.764,1.764,0,0,1-.01-.314q0-2.83,0-5.66a1.979,1.979,0,0,1,2.11-2.121c.945-.006,1.89-.006,2.835-.01.023,0,.046-.019.116-.05v-.438q0-4.893,0-9.787c0-1.107.408-1.511,1.522-1.512h.577a1.106,1.106,0,0,1,.631-1.182Zm7.1,21.614v.471q0,6.681,0,13.361a1.935,1.935,0,0,1-2.06,2.073c-.351,0-.7,0-1.074,0v1.53h14.745v-17.436h-.452c-1.063,0-2.126,0-3.189,0-.424,0-.692-.241-.7-.589s.255-.581.684-.59c.233-.005.465,0,.716,0v-1.283h-6.362v1.266c.132.007.235.016.338.016.932,0,1.864,0,2.8,0a.564.564,0,0,1,.628.558.589.589,0,0,1-.617.618c-.131.009-.262,0-.394,0Zm-13.74-8.666h8.183v-10.554h-.833c-.129.818-.366,1.139-.916,1.145q-2.341.023-4.682,0a.877.877,0,0,1-.858-.816c-.013-.112-.023-.224-.035-.334h-.859Zm28.948,26.123h2.724c.745,0,.878-.129.878-.857q0-7.874,0-15.749c0-.131.042-.3-.021-.385-.123-.176-.3-.435-.465-.441-1.031-.04-2.064-.02-3.115-.02Zm-2.358-17.438V-267.3h1.131v-17.337Zm-20.661,15.91c0,.332-.008.643,0,.953a.529.529,0,0,0,.6.572c.59.009,1.18,0,1.77,0h1.07v-1.528Zm.175-36.332h-4.014v1.126h4.014Z" fill="#fff"/>
    <path id="Path_15724" data-name="Path 15724" d="M2574.128-139.277q0,3.891,0,7.782c0,.166.016.386-.078.487-.143.155-.393.336-.563.307-.194-.033-.379-.265-.512-.45-.07-.1-.026-.279-.026-.423q0-7.723,0-15.447c0-.066,0-.131,0-.2.01-.449.243-.717.613-.7s.568.267.568.7Q2574.13-143.247,2574.128-139.277Z" transform="translate(-64.299 -141.713)" fill="#fff"/>
    <path id="Path_15725" data-name="Path 15725" d="M2644.98-139.274q0,3.851,0,7.7a3.214,3.214,0,0,1-.015.431.539.539,0,0,1-.554.508.541.541,0,0,1-.588-.469,1.907,1.907,0,0,1-.027-.39q0-7.761,0-15.523a1.911,1.911,0,0,1,.025-.391.539.539,0,0,1,.589-.468.532.532,0,0,1,.554.5,3.387,3.387,0,0,1,.015.431Q2644.98-143.105,2644.98-139.274Z" transform="translate(-127.719 -141.757)" fill="#fff"/>
    <path id="Path_15726" data-name="Path 15726" d="M2537.717-139.276q0-3.852,0-7.7a3.411,3.411,0,0,1,.006-.354.546.546,0,0,1,.563-.542.556.556,0,0,1,.6.5,2.053,2.053,0,0,1,.012.392q0,7.723,0,15.447c0,.622-.2.916-.615.9-.4-.013-.568-.286-.568-.9Q2537.717-135.4,2537.717-139.276Z" transform="translate(-32.781 -141.755)" fill="#fff"/>
    <path id="Path_15727" data-name="Path 15727" d="M2609.583-139.24q0,3.852,0,7.7a3,3,0,0,1-.011.392.543.543,0,0,1-.519.5.53.53,0,0,1-.6-.4,1.592,1.592,0,0,1-.049-.464q0-7.762,0-15.524a1.581,1.581,0,0,1,.049-.464.53.53,0,0,1,.606-.389.534.534,0,0,1,.516.5,3.046,3.046,0,0,1,.01.393Q2609.583-143.111,2609.583-139.24Z" transform="translate(-96.041 -141.749)" fill="#fff"/>
    <path id="Path_15728" data-name="Path 15728" d="M2708.317-13.448c-.708,0-1.416.005-2.124,0a1.3,1.3,0,0,1-1.376-1.344q-.016-.843,0-1.687a1.276,1.276,0,0,1,1.309-1.328q2.2-.029,4.4,0a1.294,1.294,0,0,1,1.307,1.338c.011.562.013,1.125,0,1.687a1.321,1.321,0,0,1-1.357,1.332C2709.759-13.441,2709.038-13.448,2708.317-13.448Zm0-1.179c.656,0,1.313-.013,1.969.006.3.008.391-.1.379-.388-.019-.418-.018-.839,0-1.257.011-.269-.078-.375-.356-.373q-1.989.013-3.977,0c-.26,0-.343.1-.334.35.015.432.02.865,0,1.3-.015.3.108.379.391.372C2707.027-14.639,2707.67-14.627,2708.313-14.627Z" transform="translate(-182.325 -258.147)" fill="#fff"/>
  </g>
</svg>
