<svg xmlns="http://www.w3.org/2000/svg" width="10.92" height="10.92" viewBox="0 0 10.92 10.92">
  <g id="Group_13434" data-name="Group 13434" transform="translate(-3364.402 -334.378)">
    <path id="Path_15547" data-name="Path 15547" d="M3372.678,334.378h.853v.853H3374a1.279,1.279,0,0,1,1.318,1.32q0,3.716,0,7.431a1.434,1.434,0,0,1-.032.317,1.276,1.276,0,0,1-1.289,1h-8.273c-.028,0-.057,0-.085,0a1.275,1.275,0,0,1-.979-.507,1.472,1.472,0,0,1-.26-.622v-7.806a.3.3,0,0,0,.016-.039,1.276,1.276,0,0,1,1.347-1.091h.428v-.853h.853v.846h5.631Zm1.792,4.017h-9.214v5.541a.443.443,0,0,0,.507.509h8.2a.443.443,0,0,0,.506-.51q0-2.708,0-5.417Zm-1.789-2.3h-5.636v.839h-.854v-.846c-.171,0-.331,0-.491,0a.425.425,0,0,0-.443.444c0,.259,0,.519,0,.778v.22h9.212c0-.352,0-.7,0-1.041a.4.4,0,0,0-.355-.393c-.189-.017-.381,0-.583,0v.842h-.847Z" transform="translate(0 0)" fill="#fff"/>
    <path id="Path_15548" data-name="Path 15548" d="M3426.249,518.31v.84h-.84v-.84Z" transform="translate(-59.377 -179.019)" fill="#fff"/>
    <path id="Path_15549" data-name="Path 15549" d="M3489.21,518.095h.838v.843h-.838Z" transform="translate(-121.474 -178.81)" fill="#fff"/>
    <path id="Path_15550" data-name="Path 15550" d="M3552.909,519.18v-.838h.844v.838Z" transform="translate(-183.472 -179.05)" fill="#fff"/>
    <path id="Path_15551" data-name="Path 15551" d="M3616.895,519.064v-.84h.84v.84Z" transform="translate(-245.748 -178.935)" fill="#fff"/>
    <path id="Path_15552" data-name="Path 15552" d="M3680.776,518.176h.841v.843h-.841Z" transform="translate(-307.923 -178.888)" fill="#fff"/>
    <path id="Path_15553" data-name="Path 15553" d="M3425.25,583.009v-.84h.842v.84Z" transform="translate(-59.223 -241.171)" fill="#fff"/>
    <path id="Path_15554" data-name="Path 15554" d="M3490.117,582.178v.84h-.84v-.84Z" transform="translate(-121.539 -241.181)" fill="#fff"/>
    <path id="Path_15555" data-name="Path 15555" d="M3553.01,582.948v-.84h.84v.84Z" transform="translate(-183.57 -241.113)" fill="#fff"/>
    <path id="Path_15556" data-name="Path 15556" d="M3616.969,582.1h.841v.84h-.841Z" transform="translate(-245.821 -241.1)" fill="#fff"/>
    <path id="Path_15557" data-name="Path 15557" d="M3681.683,582.118v.839h-.841v-.839Z" transform="translate(-307.987 -241.122)" fill="#fff"/>
    <path id="Path_15558" data-name="Path 15558" d="M3426.24,646.052v.84h-.84v-.84Z" transform="translate(-59.368 -303.349)" fill="#fff"/>
    <path id="Path_15559" data-name="Path 15559" d="M3489.241,645.948h.84v.84h-.84Z" transform="translate(-121.504 -303.247)" fill="#fff"/>
    <path id="Path_15560" data-name="Path 15560" d="M3553.01,646.823v-.84h.84v.84Z" transform="translate(-183.57 -303.281)" fill="#fff"/>
    <path id="Path_15561" data-name="Path 15561" d="M3616.887,646.822v-.84h.84v.84Z" transform="translate(-245.74 -303.28)" fill="#fff"/>
  </g>
</svg>
