<svg width="23" height="23" viewBox="0 0 23 23" fill="none" xmlns="http://www.w3.org/2000/svg">
<g clip-path="url(#clip0_2_1020)">
<path d="M17.8062 5.93838C17.625 5.40391 17.1177 5.02344 16.5198 5.02344H6.55511C5.95723 5.02344 5.45899 5.40391 5.26876 5.93838L3.38452 11.3646V18.6117C3.38452 19.1099 3.79217 19.5176 4.2904 19.5176H5.19629C5.69452 19.5176 6.10217 19.1099 6.10217 18.6117V17.7058H16.9728V18.6117C16.9728 19.1099 17.3804 19.5176 17.8786 19.5176H18.7845C19.2828 19.5176 19.6904 19.1099 19.6904 18.6117V11.3646L17.8062 5.93838ZM6.87217 6.8352H16.1937L17.172 9.6525H5.89382L6.87217 6.8352ZM17.8786 15.894H5.19629V11.3646H17.8786V15.894Z" fill="#FFDD9C"/>
<path d="M7.46112 14.9881C8.21158 14.9881 8.81994 14.3797 8.81994 13.6293C8.81994 12.8788 8.21158 12.2704 7.46112 12.2704C6.71066 12.2704 6.10229 12.8788 6.10229 13.6293C6.10229 14.3797 6.71066 14.9881 7.46112 14.9881Z" fill="#FFDD9C"/>
<path d="M15.614 14.9881C16.3644 14.9881 16.9728 14.3797 16.9728 13.6293C16.9728 12.8788 16.3644 12.2704 15.614 12.2704C14.8635 12.2704 14.2551 12.8788 14.2551 13.6293C14.2551 14.3797 14.8635 14.9881 15.614 14.9881Z" fill="#FFDD9C"/>
</g>
<defs>
<clipPath id="clip0_2_1020">
<rect width="21.7412" height="21.7412" fill="white" transform="translate(0.666992 0.494141)"/>
</clipPath>
</defs>
</svg>
