<svg xmlns="http://www.w3.org/2000/svg" xmlns:xlink="http://www.w3.org/1999/xlink" width="32.67" height="32.398" viewBox="0 0 32.67 32.398">
  <defs>
    <linearGradient id="linear-gradient" x1="0.5" x2="0.5" y2="1" gradientUnits="objectBoundingBox">
      <stop offset="0" stop-color="#262b74"/>
      <stop offset="1" stop-color="#59265b"/>
    </linearGradient>
  </defs>
  <g id="Group_14010" data-name="Group 14010" transform="translate(0 0)" style="isolation: isolate">
    <path id="Path_15732" data-name="Path 15732" d="M2755.6-726.39a12.418,12.418,0,0,1,1.331-1.386,2.013,2.013,0,0,1,2.174-.144c1.285.584,2.576,1.156,3.855,1.754a.362.362,0,0,0,.542-.137c.329-.456.687-.893,1.04-1.331.3-.372.551-.441.8-.239s.227.484-.065.835a28.8,28.8,0,0,0-3.881,6.007,1.394,1.394,0,0,0-.163.54.776.776,0,0,0,.992.738,2.4,2.4,0,0,0,.381-.157,32.9,32.9,0,0,0,7.38-5.078c4.306-3.764,8.64-7.5,12.962-11.242.293-.254.559-.277.76-.065s.176.5-.129.771c-.42.375-.854.736-1.27,1.115a.331.331,0,0,0-.093.281c.35.876.716,1.746,1.079,2.62.792-.448,1.129-.4,1.754.221.18.18.365.357.54.542a1.07,1.07,0,0,1,.005,1.589c-.249.262-.5.518-.768.766a.29.29,0,0,0-.083.387c.176.385.327.781.512,1.228l.331-.317a1.072,1.072,0,0,1,1.634,0c.237.229.471.462.7.7a1.055,1.055,0,0,1,.007,1.563q-.538.567-1.106,1.1a.363.363,0,0,0-.1.487c.226.492.424,1,.625,1.5a2.7,2.7,0,0,1-.627,3.132q-.617.623-1.24,1.24a1.481,1.481,0,0,1-2.406-.187q-3.845-5.146-7.685-10.3c-.076-.1-.154-.2-.249-.328l-7.556,6.48c.078.178.181.419.289.658.516,1.141,1.035,2.281,1.55,3.423a2.173,2.173,0,0,1-.484,2.651q-.258.261-.519.519a.917.917,0,0,1-1.539-.1q-1.633-2.163-3.259-4.331c-.076-.1-.155-.2-.252-.324l-.486.227a1.765,1.765,0,0,1-2.09-.293,1.754,1.754,0,0,1-.291-2.089l.23-.48c-.1-.082-.2-.161-.3-.236-1.41-1.061-2.825-2.114-4.225-3.187a4.714,4.714,0,0,1-.6-.675Zm20.27-2.447a.641.641,0,0,0,.042.1q3.975,5.329,7.953,10.656a.537.537,0,0,0,.917.06c.381-.37.753-.75,1.129-1.126a1.841,1.841,0,0,0,.482-2.412l-4.51-10.884c-.157-.379-.317-.758-.492-1.175Zm-19.312,2.657,4.6,3.461,1.548-2.533c-1.408-.631-2.789-1.256-4.176-1.868a1.009,1.009,0,0,0-1.034.1C2757.171-726.777,2756.886-726.476,2756.558-726.179Zm11.129,11.126c.195-.2.365-.373.536-.546a1.3,1.3,0,0,0,.3-1.7q-.818-1.811-1.639-3.622c-.042-.092-.093-.18-.136-.264l-2.517,1.536Zm18.533-9.4c.331-.333.6-.632.9-.9.213-.191.22-.338-.007-.505a1.285,1.285,0,0,1-.136-.134c-.618-.618-.724-.611-1.239.1a.238.238,0,0,0-.034.193C2785.865-725.3,2786.034-724.9,2786.221-724.455Zm-1.933-4.667c.219-.243.393-.456.587-.648.143-.141.117-.243-.015-.368-.2-.188-.382-.4-.589-.576-.068-.059-.243-.108-.277-.073-.1.108-.255.288-.223.388C2783.9-729.99,2784.089-729.6,2784.288-729.123Z" transform="translate(-2755.6 746.48)" fill="url(#linear-gradient)"/>
    <path id="Path_15733" data-name="Path 15733" d="M2802.394-849.219c-.262-.2-.5-.375-.734-.552q-4.868-3.633-9.735-7.267a1.505,1.505,0,0,1-.178-2.535c.383-.384.765-.769,1.151-1.15a2.7,2.7,0,0,1,3.157-.632c.59.241,1.182.475,1.763.735a.343.343,0,0,0,.463-.1c.326-.35.668-.685,1.013-1.017a1.064,1.064,0,0,1,1.609,0q.344.332.677.676a1.075,1.075,0,0,1,.005,1.635c-.071.075-.14.151-.237.256.4.167.767.329,1.142.468.06.022.176-.038.234-.094.307-.294.6-.6.907-.9a1.066,1.066,0,0,1,1.61,0c.222.214.439.433.655.654a1.073,1.073,0,0,1,.07,1.612c-.026.032-.05.065-.1.129.836.347,1.652.692,2.475,1.017.065.026.205-.061.273-.132.751-.779,1.444-1.624,2.254-2.337a10.234,10.234,0,0,1,5.633-2.466,6.614,6.614,0,0,1,1.615-.092,2.081,2.081,0,0,1,1.814,2.278,11.472,11.472,0,0,1-1.5,5.216c-.123.21-.252.419-.387.622-.209.315-.476.4-.721.228a.493.493,0,0,1-.075-.734,8.425,8.425,0,0,0,1.232-2.609,23,23,0,0,0,.491-2.816,1.144,1.144,0,0,0-1.348-1.266,10.218,10.218,0,0,0-7.435,3.614q-5.235,6.056-10.481,12.1a1.806,1.806,0,0,1-.173.186.453.453,0,0,1-.635.034.462.462,0,0,1-.062-.657,2.377,2.377,0,0,1,.163-.2Zm5.391-6.226c-.081-.042-.134-.075-.191-.1q-5.97-2.477-11.942-4.951a1.759,1.759,0,0,0-2.049.409c-.394.388-.782.781-1.173,1.173-.474.476-.456.729.08,1.129l10.195,7.61c.1.074.2.145.319.229Zm-8.769-4.686c.445.187.815.345,1.187.5.183.074.815-.428.784-.623a.274.274,0,0,0-.083-.131c-.215-.22-.426-.446-.658-.647a.291.291,0,0,0-.281-.014C2799.65-860.769,2799.356-860.466,2799.016-860.131Zm4.479,1.857c.4.169.7.3,1.008.423.413.172.494.155.751-.215a.276.276,0,0,0-.009-.263,7.866,7.866,0,0,0-.675-.675.269.269,0,0,0-.26-.012C2804.043-858.794,2803.793-858.55,2803.5-858.275Z" transform="translate(-2788.298 862.101)" fill="url(#linear-gradient)"/>
    <path id="Path_15734" data-name="Path 15734" d="M3069.813-810.94a.474.474,0,0,1-.425.485.474.474,0,0,1-.519-.411,6.381,6.381,0,0,0-.277-1.038,2.213,2.213,0,0,0-1.729-1.3c-.146-.028-.295-.042-.438-.08a.458.458,0,0,1-.368-.546.478.478,0,0,1,.542-.38,3.345,3.345,0,0,1,3.163,2.963C3069.777-811.143,3069.8-811.039,3069.813-810.94Z" transform="translate(-3041.24 818.039)" fill="url(#linear-gradient)"/>
  </g>
</svg>
