<svg xmlns="http://www.w3.org/2000/svg" width="23.959" height="20.989" viewBox="0 0 23.959 20.989">
  <g id="Group_14362" data-name="Group 14362" transform="translate(-5614.83 278.415)">
    <path id="Path_15592" data-name="Path 15592" d="M5614.831-259.408v-12.447a1.323,1.323,0,0,0,.041-.153,2.313,2.313,0,0,1,1.935-1.977,9.079,9.079,0,0,1,1.146-.008c.02-.1.04-.163.048-.23.082-.681.172-1.36.244-2.042a2.326,2.326,0,0,1,2.69-2.129c1.028.129,2.059.241,3.087.358q2.985.338,5.969.672c2.175.246,4.35.5,6.525.738a2.4,2.4,0,0,1,2.258,2.613c-.193,1.8-.4,3.592-.607,5.388-.232,2.051-.468,4.1-.7,6.154a2.311,2.311,0,0,1-1.707,2.23.322.322,0,0,0-.284.4,2.086,2.086,0,0,1-.54,1.546,2.6,2.6,0,0,1-2.062.867q-3.732-.007-7.461,0-4.129,0-8.256,0a2.142,2.142,0,0,1-1.921-.956A5.508,5.508,0,0,1,5614.831-259.408Zm1.166-3.9.284-.2q1.73-1.258,3.46-2.515a2.6,2.6,0,0,1,3.462.169q1.474,1.3,2.948,2.6a1.5,1.5,0,0,0,1.932.189q3.029-1.763,6.059-3.526a.329.329,0,0,0,.188-.331c-.006-1.5,0-2.994-.006-4.491a1.726,1.726,0,0,0-.066-.483,1.322,1.322,0,0,0-1.375-.941h-15.648c-.061,0-.125,0-.187,0a.951.951,0,0,0-.684.309A1.414,1.414,0,0,0,5616-271.5q0,3.988,0,7.976Zm18.33-2.028c-.12.066-.193.106-.266.148q-2.659,1.538-5.319,3.076a3.629,3.629,0,0,1-.541.273,2.667,2.667,0,0,1-2.845-.557c-1-.869-1.988-1.754-2.985-2.626a1.366,1.366,0,0,0-1.835-.156c-1.484,1.073-2.955,2.164-4.427,3.253a.3.3,0,0,0-.105.209c-.007.709-.012,1.419,0,2.128a1.008,1.008,0,0,0,.783.96,2.284,2.284,0,0,0,.488.036q7.776,0,15.554,0c.1,0,.2,0,.3-.012a1.2,1.2,0,0,0,1.2-1.3v-5.43Zm-15.189-8.672h.3q6.724,0,13.45,0a2.524,2.524,0,0,1,1.2.267,2.463,2.463,0,0,1,1.4,2.33q.005,4.877,0,9.755v.3a1.016,1.016,0,0,0,.735-.839c.208-1.756.408-3.514.612-5.271q.387-3.32.775-6.64a1.139,1.139,0,0,0-.988-1.308c-.94-.133-1.888-.228-2.831-.338q-3.133-.366-6.268-.73c-2.237-.259-4.475-.511-6.711-.772a1.177,1.177,0,0,0-1.412,1.031C5619.292-275.5,5619.225-274.769,5619.137-274.008Z" transform="translate(0 0)" fill="#59265b"/>
    <path id="Path_15593" data-name="Path 15593" d="M5756.187-167.382a2.457,2.457,0,0,1-2.449-2.435,2.466,2.466,0,0,1,2.438-2.448,2.459,2.459,0,0,1,2.446,2.438A2.446,2.446,0,0,1,5756.187-167.382Zm-.014-3.716a1.282,1.282,0,0,0-1.268,1.285,1.283,1.283,0,0,0,1.286,1.269,1.29,1.29,0,0,0,1.271-1.287A1.285,1.285,0,0,0,5756.173-171.1Z" transform="translate(-129.219 -98.746)" fill="#59265b"/>
  </g>
</svg>
