<svg xmlns="http://www.w3.org/2000/svg" width="20.365" height="20.357" viewBox="0 0 20.365 20.357">
  <path id="Path_25964" data-name="Path 25964" d="M5844.545-922.349a2.127,2.127,0,0,1-.554.929,1.85,1.85,0,0,1-1.262.508c-.1,0-.2,0-.333,0v.236c0,1.952,0,3.9,0,5.855a2.177,2.177,0,0,1-1.7,2.171,2.472,2.472,0,0,1-.552.059c-1.036.005-2.071,0-3.107,0a.616.616,0,0,1-.69-.686c0-1.527-.017-3.054.008-4.581A1.066,1.066,0,0,0,5835.2-919c-.557.021-1.116,0-1.673,0a1.008,1.008,0,0,0-1.1,1.1q0,2.28,0,4.561c0,.519-.22.738-.738.739q-1.514,0-3.027,0a2.193,2.193,0,0,1-2.285-2.279q0-2.888,0-5.776v-.247a6.265,6.265,0,0,1-.657-.059,1.782,1.782,0,0,1-1.428-1.241,1.807,1.807,0,0,1,.373-1.84c.06-.071.127-.135.193-.2q3.894-3.894,7.787-7.789a3.186,3.186,0,0,1,1.267-.923h.956a3.128,3.128,0,0,1,1.225.882q3.83,3.839,7.67,7.667a2.74,2.74,0,0,1,.788,1.171Zm-7.006,8.565h2.523a1.018,1.018,0,0,0,1.139-1.143q0-3.246,0-6.493a.617.617,0,0,1,.69-.687c.279,0,.558,0,.837,0a.661.661,0,0,0,.629-.489.758.758,0,0,0-.286-.793q-4.045-4.039-8.086-8.082a.722.722,0,0,0-1.208.007l-7.2,7.2c-.333.333-.669.663-1,1a.644.644,0,0,0-.142.753.648.648,0,0,0,.628.408c.246,0,.492,0,.737,0,.547,0,.763.214.763.755q0,3.246,0,6.493a1,1,0,0,0,1.066,1.074q1.2,0,2.391,0c.063,0,.126-.007.2-.011v-.253c0-1.348-.011-2.7.009-4.043a2.117,2.117,0,0,1,1.927-2.062c.812-.054,1.631-.011,2.447-.009a.843.843,0,0,1,.177.026,2.18,2.18,0,0,1,1.748,2.174c.008,1.308,0,2.616,0,3.923Z" transform="translate(-5824.181 932.945)" fill="#59265b"/>
</svg>
