<svg xmlns="http://www.w3.org/2000/svg" width="13.335" height="18.936" viewBox="0 0 13.335 18.936">
  <g id="Group_14319" data-name="Group 14319" transform="translate(-4077.081 -124.283)">
    <path id="Path_15562" data-name="Path 15562" d="M4084.106,124.283c.188.025.377.044.564.074a6.667,6.667,0,0,1,4.74,10.053c-1.664,2.82-3.36,5.621-5.043,8.43a.573.573,0,0,1-1.072.015q-2.591-4.174-5.18-8.348a6.667,6.667,0,0,1,4.213-10.069c.341-.075.691-.1,1.037-.155Zm-.286,17.305c.05-.08.09-.141.127-.2l4.479-7.478a5.445,5.445,0,0,0,.451-5.028,5.544,5.544,0,0,0-10.45.454,5.414,5.414,0,0,0,.632,4.59q2.326,3.752,4.654,7.5C4083.746,141.476,4083.78,141.526,4083.821,141.588Z" transform="translate(0 0)"/>
    <path id="Path_15563" data-name="Path 15563" d="M4152.263,202.81a3.328,3.328,0,1,1,3.323-3.33A3.33,3.33,0,0,1,4152.263,202.81Zm-.014-1.106a2.222,2.222,0,1,0-2.212-2.225A2.217,2.217,0,0,0,4152.249,201.7Z" transform="translate(-68.522 -68.543)"/>
  </g>
</svg>
