<svg xmlns="http://www.w3.org/2000/svg" width="22.591" height="28.302" viewBox="0 0 22.591 28.302">
  <g id="Group_14385" data-name="Group 14385" transform="translate(22.591) rotate(90)">
    <path id="Path_15749" data-name="Path 15749" d="M20.285,1.662A1.524,1.524,0,0,1,18.523,2.82H.5C.024,2.82,0,2.8,0,2.327,0,1.674,0,1.021,0,.368,0,.058.06,0,.377,0H18.756a1.531,1.531,0,0,1,1.529,1.11Z" transform="translate(8.016 15.539)"/>
    <path id="Path_15750" data-name="Path 15750" d="M0,1.159A1.55,1.55,0,0,1,1.772,0H19.787c.474,0,.5.024.5.5,0,.644,0,1.287,0,1.931,0,.336-.053.391-.379.392H1.5A1.471,1.471,0,0,1,0,1.655Z" transform="translate(0 4.235)"/>
    <path id="Path_15751" data-name="Path 15751" d="M7.077,5.78a4.673,4.673,0,0,1-.373.4q-2.9,2.455-5.8,4.9c-.184.155-.371.282-.623.166S0,10.915,0,10.671Q0,5.651,0,.63C0,.386.031.167.276.048S.716.054.9.209Q3.83,2.688,6.761,5.166a3.879,3.879,0,0,1,.317.338Z" transform="translate(21.224 0)"/>
    <path id="Path_15752" data-name="Path 15752" d="M0,5.515a4.726,4.726,0,0,1,.374-.4q2.9-2.455,5.8-4.9c.181-.153.366-.29.621-.17a.546.546,0,0,1,.284.576q0,5.021,0,10.041c0,.243-.027.466-.275.581a.549.549,0,0,1-.625-.16Q3.247,8.607.316,6.13A3.789,3.789,0,0,1,0,5.791Z" transform="translate(0 11.3)"/>
  </g>
</svg>
