<svg xmlns="http://www.w3.org/2000/svg" width="28.577" height="29.82" viewBox="0 0 28.577 29.82">
  <g id="Notification" transform="translate(0.8 1.6)">
    <g id="Bell_icon" data-name="Bell icon" transform="translate(0 2.493)">
      <path id="Vector" d="M16.508,2.191A7.479,7.479,0,0,0,3.74,7.479C3.74,16.205,0,18.7,0,18.7H22.438S18.7,16.205,18.7,7.479A7.479,7.479,0,0,0,16.508,2.191Z" fill="none" stroke="#000" stroke-linecap="round" stroke-linejoin="round" stroke-width="1.6" stroke-dasharray="0 0"/>
      <path id="Vector-2" data-name="Vector" d="M4.313,0A2.493,2.493,0,0,1,3.4.909a2.493,2.493,0,0,1-1.244.333A2.493,2.493,0,0,1,.912.909,2.493,2.493,0,0,1,0,0" transform="translate(9.062 23.684)" fill="none" stroke="#000" stroke-linecap="round" stroke-linejoin="round" stroke-width="1.6" stroke-dasharray="0 0"/>
    </g>
    <g id="Shape" transform="translate(14.959)" fill="red" stroke="#000" stroke-width="1.6" stroke-dasharray="0 0">
      <circle cx="5.609" cy="5.609" r="5.609" stroke="none"/>
      <circle cx="5.609" cy="5.609" r="6.409" fill="none"/>
    </g>
  </g>
</svg>
