<svg xmlns="http://www.w3.org/2000/svg" width="24" height="24" viewBox="0 0 24 24">
  <g id="Group_14404" data-name="Group 14404" transform="translate(-215.984 -709.5)">
    <circle id="Ellipse_1031" data-name="Ellipse 1031" cx="12" cy="12" r="12" transform="translate(215.984 709.5)" fill="#ffc14f"/>
    <g id="Group_14006" data-name="Group 14006" transform="translate(219.813 718.275)">
      <path id="Path_18718" data-name="Path 18718" d="M394.509-151.461a2.109,2.109,0,0,1,1.859-.179,2.732,2.732,0,0,1,.45.256c.515.35,1.03.7,1.537,1.064a.355.355,0,0,0,.415.029c2.387-1.18,4.779-2.35,7.165-3.532a4.014,4.014,0,0,1,3.12-.25.61.61,0,0,1,.476.569.6.6,0,0,1-.439.6q-1.72.683-3.441,1.363c-.034.013-.069.023-.143.048a.732.732,0,0,0,.1-.192c.011-.078.021-.186-.021-.234a.252.252,0,0,0-.227-.045q-1.6.617-3.187,1.255c-.066.026-.109.108-.163.165a.029.029,0,0,0-.007.015c-.07.445-.364.636-.77.773-.723.243-1.434.523-2.137.819a1.717,1.717,0,0,1-1.85-.3c-.693-.548-1.373-1.111-2.059-1.668Z" transform="translate(-394.509 154.278)" fill="#fff"/>
      <path id="Path_18719" data-name="Path 18719" d="M544.4-87.84c-.034.064-.054.106-.078.147q-1.382,2.387-2.763,4.775a.235.235,0,0,1-.24.14c-.346-.009-.692,0-1.065,0,.022-.064.036-.113.054-.16q.708-1.873,1.421-3.744a.313.313,0,0,1,.149-.167c.8-.324,1.607-.639,2.412-.956C544.321-87.819,544.352-87.825,544.4-87.84Z" transform="translate(-533.927 90.726)" fill="#fff"/>
      <path id="Path_18720" data-name="Path 18720" d="M512.682-149.938l-.371.186c-.33.163-.658.329-.992.484a.248.248,0,0,1-.2,0c-.736-.466-1.468-.94-2.2-1.413a.764.764,0,0,1-.069-.058c.2-.12.385-.238.578-.347a.2.2,0,0,1,.15-.015q1.547.565,3.09,1.138S512.671-149.959,512.682-149.938Z" transform="translate(-503.882 151.251)" fill="#fff"/>
    </g>
  </g>
</svg>
