<svg xmlns="http://www.w3.org/2000/svg" width="33.456" height="28.337" viewBox="0 0 33.456 28.337">
  <g id="Group_14349" data-name="Group 14349" transform="translate(-2090.975 -117.616)" style="isolation: isolate">
    <path id="Path_15711" data-name="Path 15711" d="M2091.951,144.9c-.169-.06-.341-.117-.509-.182a2.674,2.674,0,0,1-1.705-2.617q-.008-4.126,0-8.252c0-1.611,0-3.222,0-4.833a2.681,2.681,0,0,1,2.88-2.9c.667,0,1.334,0,2,0,.5,0,.793.257.793.671s-.287.663-.793.666c-.706,0-1.412,0-2.117,0a1.33,1.33,0,0,0-1.423,1.425q-.006,6.621,0,13.242a1.3,1.3,0,0,0,1.258,1.423c1.842.024,3.684.008,5.589.008v-.507q0-11.807,0-23.615a2.685,2.685,0,0,1,2.024-2.778,3.68,3.68,0,0,1,.893-.091q5.628-.009,11.255,0a2.7,2.7,0,0,1,2.906,2.921c0,1.126,0,2.253,0,3.379,0,.5-.308.814-.731.774a.663.663,0,0,1-.6-.737c-.006-1.126,0-2.253,0-3.379,0-1.111-.5-1.613-1.6-1.613q-5.608,0-11.216,0a1.383,1.383,0,0,0-1.589,1.581q0,11.807,0,23.615v.422h3.518v-.39q0-3.143,0-6.287c0-.707.206-.916.905-.916q2.8,0,5.608,0c.624,0,.853.228.853.85q0,3.143,0,6.287v.459h3.518V127.1c0-.806.178-.981,1-.981q2.824,0,5.647,0a2.678,2.678,0,0,1,2.88,2.857q.006,6.542,0,13.084a2.645,2.645,0,0,1-2.119,2.776.4.4,0,0,0-.1.062h-3.529c-.3-.221-.537-.474-.4-.884s.478-.463.856-.458c.81.01,1.621,0,2.431,0a1.348,1.348,0,0,0,1.513-1.492q0-6.56,0-13.121a1.346,1.346,0,0,0-1.479-1.488c-1.359,0-2.718,0-4.078,0H2115v.5q0,7.994.007,15.988a.984.984,0,0,1-.467.956Zm12.195-7.613v6.247h4.631v-6.247Z" transform="translate(1.241 1.051)" fill="#fff"/>
    <path id="Path_15712" data-name="Path 15712" d="M2211.139,181.439q1.976,0,3.952,0c.565,0,.9.271.895.718s-.336.719-.9.719q-3.953,0-7.9,0c-.562,0-.9-.277-.895-.725s.332-.711.9-.712Q2209.162,181.437,2211.139,181.439Z" transform="translate(-103.433 -57.571)" fill="#fff"/>
    <path id="Path_15713" data-name="Path 15713" d="M2221.016,244.432c-.9,0-1.8,0-2.693,0-.553,0-.894-.292-.879-.738s.341-.7.878-.7q2.715,0,5.429,0c.552,0,.894.294.88.739s-.341.7-.878.7C2222.839,244.434,2221.927,244.432,2221.016,244.432Z" transform="translate(-113.334 -112.197)" fill="#fff"/>
    <path id="Path_15714" data-name="Path 15714" d="M2128.815,267.675c0-.478-.007-.955,0-1.433a.717.717,0,1,1,1.43-.014q.015,1.475,0,2.95a.719.719,0,1,1-1.431-.028C2128.81,268.659,2128.815,268.167,2128.815,267.675Z" transform="translate(-34.68 -132.142)" fill="#fff"/>
    <path id="Path_15715" data-name="Path 15715" d="M2357.149,267.7c0-.478-.005-.955,0-1.433a.721.721,0,0,1,.722-.805c.431,0,.707.31.71.815q.008,1.433,0,2.866a.713.713,0,0,1-.719.8c-.43,0-.706-.311-.713-.814C2357.144,268.66,2357.149,268.182,2357.149,267.7Z" transform="translate(-237.313 -132.141)" fill="#fff"/>
  </g>
</svg>
